<svg id="Layer_1" data-name="Layer 1" xmlns="http://www.w3.org/2000/svg" viewBox="0 0 128 103.81"><defs><style>.cls-1{fill:#56347c;}</style></defs><polygon class="cls-1" points="53.73 87.03 49.73 87.03 49.73 68.48 64.83 60.39 66.72 63.92 53.73 70.88 53.73 87.03"/><polygon class="cls-1" points="32.69 50.23 28.69 50.23 28.69 31.68 43.79 23.59 45.68 27.12 32.69 34.08 32.69 50.23"/><polygon class="cls-1" points="74.68 50.23 70.68 50.23 70.68 31.76 85.67 22.5 87.77 25.9 74.68 33.99 74.68 50.23"/><polygon class="cls-1" points="23.06 103.23 21.05 99.77 41.02 88.2 41.02 66.2 22.06 55.21 2.09 66.78 0.09 63.32 22.06 50.59 45.02 63.9 45.02 90.5 23.06 103.23"/><path class="cls-1" d="M64,103.81l-23-13.31V63.9L64,50.58,87,63.9V90.5Zm-19-15.61,19,11,19-11v-22l-19-11-19,11Z"/><polygon class="cls-1" points="105.03 103.23 83.07 90.5 83.07 63.9 106.03 50.59 128 63.32 125.99 66.78 106.03 55.21 87.07 66.2 87.07 88.2 107.03 99.77 105.03 103.23"/><polygon class="cls-1" points="2.02 66.43 0.01 62.97 19.98 51.4 19.98 29.4 0.01 17.82 2.02 14.36 23.98 27.09 23.98 53.7 2.02 66.43"/><path class="cls-1" d="M43,67,20,53.7V27.09L43,13.78,66,27.09V53.7ZM24,51.4l19,11,19-11v-22l-19-11-19,11Z"/><path class="cls-1" d="M85,67,62,53.7V27.09L85,13.78l23,13.31V53.7ZM66,51.4l19,11,19-11v-22l-19-11-19,11Z"/><polygon class="cls-1" points="125.98 66.43 104.02 53.7 104.02 27.09 125.98 14.36 127.98 17.82 108.02 29.4 108.02 51.4 127.98 62.97 125.98 66.43"/><polygon class="cls-1" points="21.97 30.21 0 17.47 2.01 14.01 21.97 25.59 40.93 14.59 40.93 0 44.93 0 44.93 16.9 21.97 30.21"/><polygon class="cls-1" points="63.95 30.21 40.99 16.9 40.99 0 44.99 0 44.99 14.59 63.95 25.59 82.92 14.59 82.92 0 86.92 0 86.92 16.9 63.95 30.21"/><polygon class="cls-1" points="105.94 30.21 82.98 16.9 82.98 0 86.98 0 86.98 14.59 105.94 25.59 125.91 14.01 127.91 17.47 105.94 30.21"/></svg>