<svg xmlns="http://www.w3.org/2000/svg" xmlns:xlink="http://www.w3.org/1999/xlink" width="24" height="24" viewBox="0 0 24 24" fill="#56347C">
  <path d="M9 2C5.1458495 2 2 5.1458524 2 9C2 12.854148 5.1458495 16 9 16C10.747999 16 12.345009 15.348024 13.574219 14.28125L14 14.707031L14 16L20 22L22 20L16 14L14.707031 14L14.28125 13.574219C15.348024 12.345009 16 10.747997 16 9C16 5.1458524 12.854151 2 9 2 z M 9 4C11.773271 4 14 6.2267307 14 9C14 11.773269 11.773271 14 9 14C6.226729 14 4 11.773269 4 9C4 6.2267307 6.226729 4 9 4 z" fill="#56347C" />
</svg>